<?xml version="1.0" standalone="no"?>
<!DOCTYPE svg PUBLIC "-//W3C//DTD SVG 20010904//EN"
 "http://www.w3.org/TR/2001/REC-SVG-20010904/DTD/svg10.dtd">
<svg version="1.0" xmlns="http://www.w3.org/2000/svg"
 width="16.000000pt" height="16.000000pt" viewBox="0 0 16.000000 16.000000"
 preserveAspectRatio="xMidYMid meet">
<metadata>
Created by potrace 1.11, written by Peter Selinger 2001-2013
</metadata>
<g transform="translate(0.000000,16.000000) scale(0.003125,-0.003125)"
fill="#000000" stroke="none">
<path d="M755 5109 c-225 -54 -345 -117 -484 -252 -139 -135 -229 -316 -258
-517 -9 -59 -8 -3500 0 -3565 26 -199 113 -373 257 -516 119 -118 248 -192
410 -235 l85 -23 1788 -1 c1980 0 1844 -5 2007 65 273 115 477 360 536 645 17
79 18 200 18 1835 0 963 -3 1770 -6 1795 -42 304 -236 566 -513 695 -38 18
-104 43 -145 56 l-75 24 -1790 1 c-1105 1 -1805 -2 -1830 -7z"/>
</g>
</svg>
